<?xml version="1.0" encoding="UTF-8"?><svg id="Layer_1" xmlns="http://www.w3.org/2000/svg" viewBox="0 0 32 32"><path d="m16,7.26c-4.97.13-8.89,4.27-8.76,9.24.1,3.7,2.45,6.96,5.94,8.22.44.09.61-.19.61-.43v-1.66c-2.5.53-3-1.06-3-1.06-.16-.55-.52-1.01-1-1.32-.81-.55.06-.54.06-.54.58.08,1.08.42,1.38.92.5.93,1.66,1.27,2.59.77,0,0,0,0,0,0,.04-.46.24-.88.57-1.2-2-.23-4.08-1-4.08-4.43-.01-.89.32-1.75.92-2.4-.27-.77-.24-1.61.08-2.36,0,0,.75-.25,2.46.91,1.47-.4,3.02-.4,4.49,0,1.73-1.17,2.44-.91,2.44-.91.33.75.36,1.6.08,2.37.61.65.94,1.51.92,2.4,0,3.45-2.09,4.2-4.08,4.43.43.44.65,1.05.6,1.66v2.45c0,.24.16.52.62.43,4.68-1.66,7.13-6.81,5.47-11.49-1.25-3.53-4.57-5.92-8.32-5.99Z" fill="#fff" fill-rule="evenodd" stroke-width="0"/><path d="m10.43,20.13s-.08.05-.15,0-.1-.09-.08-.13.09-.06.15,0,.1.08.08.13Z" fill="#fff" stroke-width="0"/><path d="m10.8,20.53h-.19c-.05-.06-.05-.13,0-.19h.18c.06,0,.05.15,0,.19Z" fill="#fff" stroke-width="0"/><path d="m11.15,21.05c-.06,0-.15,0-.2-.08-.05-.06-.05-.16,0-.22.06,0,.14,0,.2.08.06.06.06.16,0,.22Z" fill="#fff" stroke-width="0"/><path d="m11.63,21.55c-.05.05-.15,0-.23,0s-.1-.18-.05-.23c.07-.06.16-.06.23,0,.08.07.11.17.05.23Z" fill="#fff" stroke-width="0"/><path d="m12.3,21.84c-.05.07-.14.1-.22.07-.1,0-.17-.12-.15-.19s.12-.1.23-.07c.09.02.15.1.14.19Z" fill="#fff" stroke-width="0"/><path d="m13,21.89c0,.07-.08.13-.18.13s-.2-.05-.2-.12.08-.14.19-.14c.09-.02.17.04.19.12,0,0,0,0,0,0Z" fill="#fff" stroke-width="0"/><path d="m13.72,21.77c-.01.09-.08.16-.17.17-.11,0-.2,0-.21-.1s.06-.15.16-.17c.09-.03.18.02.22.1Z" fill="#fff" stroke-width="0"/><circle cx="16" cy="16" r="16" stroke-width="0"/><path d="m14.63,13.46c-.02,1.44-.03,2.87-.05,4.31-.09-.02-2.2-.52-3.58.91-1.25,1.3-1.17,3.4-.28,4.58h0s0,0,0,0c0,0-.01,0-.03-.02-.02,0-.03-.02-.06-.03-.01,0-.03-.02-.04-.03-.03-.02-.06-.03-.1-.06-.03-.02-.06-.03-.09-.06-.03-.02-.06-.04-.09-.06-.07-.05-.15-.11-.24-.18-.15-.13-.31-.28-.46-.45-.21-.25-.65-.77-.8-1.57-.12-.63.02-1.12.08-1.42.05-.24.36-1.52,1.62-2.31,1.32-.83,2.67-.49,2.89-.43.02-1.08.03-2.17.05-3.25.51-.02.93.02,1.18.05Z" fill="#fd2854" stroke-width="0"/><path d="m19.73,4.29c-.72.02-1.45.03-2.17.04h0c.72-.02,1.45-.03,2.17-.04Z" fill="#fd2854" stroke-width="0"/><path d="m22.83,7.9c-.85-.69-1.43-1.61-1.74-2.09-.03-.05-.06-.09-.09-.14-.05-.08-.09-.15-.13-.23-.03-.06-.07-.12-.1-.17-.05-.09-.09-.18-.14-.27,0-.01-.01-.02-.02-.03-.02-.05-.05-.1-.07-.14,0-.01-.01-.02-.02-.03-.08-.16-.14-.29-.19-.43,0,0,0,0,0-.01-.01-.03-.02-.06-.03-.08h0c.13,0,.26,0,.39,0,.21.75.62,1.82,1.45,2.87.22.28.45.53.68.76Z" fill="#fd2854" stroke-width="0"/><path d="m27.32,10.24c0,1.42-.02,2.84-.03,4.26-.67,0-1.52-.08-2.46-.33-1.56-.41-2.72-1.1-3.45-1.63,0,.44,0,1.09,0,1.88,0,1.05,0,1.65,0,2.28-.02,3.92.08,4.68-.26,6.23-.11.5-.17.75-.29,1.1-.66,1.85-2.11,3.33-3.58,4.11-2.96,1.58-7.13.96-9.14-1.42,0,0-.01-.01-.02-.02.08.06.17.12.26.18.36.22.69.35.89.41.33.14,3.82,1.57,7.23-.51,3.44-2.1,3.75-5.91,3.77-6.26v-9.02c.57.43,1.48,1.02,2.73,1.42,1.29.42,2.42.46,3.14.44,0-.4-.02-.81-.02-1.21l-.04-2.26v-.02c.55.19,1,.3,1.27.35Z" fill="#fd2854" stroke-width="0"/><path d="m13.47,12.39c0,.34-.01.68-.02,1.03-.76-.01-2.22.08-3.76.92-2.09,1.15-3.13,3.02-3.48,4.14-.38,1.21-.42,2.22-.41,2.84.01.49.1,3.77,2.24,5.37-.7-.44-1.3-1.04-1.3-1.04-.72-.72-1.14-1.4-1.29-1.66-.19-.33-.93-1.69-.98-3.62-.02-.66.04-1.76.5-3,.23-.62,1.09-2.8,3.48-4.14,2.22-1.24,4.36-.96,5.02-.85Z" fill="#24f6fa" stroke-width="0"/><path d="m20.34,4.36s-.02-.06-.03-.08c-.19,0-.39,0-.58.01-.72.02-1.45.03-2.17.04-.15,0-.3,0-.45.01.02,5.63.03,11.27.05,16.9-.01.11-.24,2.2-2.11,3.1-.25.12-.55.23-.88.29-.87.03-1.61-.21-1.74-.26-.43-.14-1.06-.35-1.55-.91-.05-.06-.1-.12-.15-.18,0,0,0,0,0,0,0,0,0,0,0,0,.75.4,2.1.44,3.08-.04,1.37-.66,2.11-2.19,2.11-3.1-.02-5.63-.03-11.26-.05-16.9,1.43,0,2.85-.02,4.28-.02,0,.4.07.73.14.96.01.03.02.07.03.1,0,.03.02.05.03.08Z" fill="#24f6fa" stroke-width="0"/><path d="m26.05,9.89c-.92-.33-2.12-.91-3.19-1.96l-.02-.02c1.11.89,2.39,1.14,3.19,1.22,0,.25.01.5.02.76Z" fill="#24f6fa" stroke-width="0"/><polygon points="26.1 12.17 26.09 12.17 26.05 9.91 26.1 12.17" fill="#24f6fa" stroke-width="0"/><path d="m26.11,13.37c-.73.03-1.85-.02-3.14-.44-1.24-.4-2.16-.99-2.73-1.42v9.02c-.02.34-.32,4.15-3.77,6.26-3.41,2.08-6.9.65-7.23.51-.2-.07-.52-.19-.89-.41-.09-.06-.18-.11-.26-.18,0,0,0,0,0-.01,0,0-.01,0-.02-.01,0,0-.01,0-.02-.01-2.14-1.59-2.22-4.88-2.24-5.37-.02-.62.03-1.63.41-2.84.35-1.11,1.39-2.99,3.48-4.14,1.54-.84,3-.93,3.76-.92h0c-.02,1.09-.03,2.17-.05,3.26-.22-.06-1.57-.4-2.89.43-1.26.79-1.57,2.07-1.62,2.31-.07.3-.2.79-.08,1.42.14.8.58,1.32.8,1.57.15.18.31.33.46.45.08.07.17.13.24.18.03.02.06.04.09.06.03.02.06.04.09.06.04.03.07.04.1.06.02.01.03.02.04.03.03.01.04.02.06.03.02.01.03.02.03.02,0,0,0,0,0,0,.05.06.1.13.15.18.5.55,1.13.76,1.55.91.13.04.87.29,1.74.26.33-.07.63-.18.88-.29,1.87-.89,2.1-2.98,2.11-3.1-.02-5.63-.03-11.27-.05-16.9.15,0,.3,0,.45-.01.72-.01,1.45-.03,2.17-.04.19,0,.39,0,.58-.01.01.03.02.05.03.08,0,0,0,0,0,.01.05.14.11.27.19.43,0,.01.01.02.02.03.02.04.04.09.07.14,0,.01.01.02.02.03.04.09.09.18.14.27.03.05.06.11.1.17.04.07.08.15.13.23.03.05.06.1.09.14.31.49.89,1.41,1.74,2.09,0,0,0,0,.01.01l.02.02c1.07,1.05,2.27,1.63,3.19,1.96v.02l.04,2.26c0,.4.01.81.02,1.21Z" fill="#fff" stroke-width="0"/><path d="m20.31,4.27h0c-.19,0-.39,0-.58.01.19,0,.39,0,.58-.01Z" fill="#fff" stroke-width="0"/><path d="m20.54,4.8c-.08-.16-.14-.29-.19-.43.06.13.12.27.19.43Z" fill="#fff" stroke-width="0"/><path d="m22.83,7.9c-.85-.69-1.43-1.61-1.74-2.09-.03-.05-.06-.09-.09-.14.42.7,1.01,1.49,1.83,2.24Z" fill="#fff" stroke-width="0"/><path d="m26.05,9.89c-.92-.33-2.12-.91-3.19-1.96,1.19,1.09,2.4,1.66,3.19,1.96Z" fill="#fff" stroke-width="0"/><path d="m8.1,26.71s-.02-.01-.03-.02c0,0,.01,0,.02.01,0,0,0,0,0,.01Z" fill="#fff" stroke-width="0"/></svg>