<?xml version="1.0" encoding="utf-8"?>
<!-- Generator: Adobe Illustrator 27.8.1, SVG Export Plug-In . SVG Version: 6.00 Build 0)  -->
<svg version="1.1" id="Layer_1" xmlns="http://www.w3.org/2000/svg" xmlns:xlink="http://www.w3.org/1999/xlink" x="0px" y="0px"
	 viewBox="0 0 32 32" style="enable-background:new 0 0 32 32;" xml:space="preserve">
<style type="text/css">
	.st0{fill:#1D59F9;}
	.st1{fill:#FFFFFF;}
</style>
<circle class="st0" cx="16" cy="16" r="16"/>
<path class="st1" d="M16,6C10.5,6,6,10.5,6,16s4.5,10,10,10s10-4.5,10-10S21.5,6,16,6z M24,15.5h-3c0-2.4-0.6-4.8-1.8-6.8
	C22,9.9,23.8,12.5,24,15.5z M17.6,23.9c-0.4,0.1-0.7,0.1-1.1,0.1v-7.5H20C19.9,19.8,18.9,22.6,17.6,23.9L17.6,23.9z M12,16.5h3.5V24
	c-0.4,0-0.7-0.1-1.1-0.1C13.1,22.6,12.1,19.8,12,16.5z M14.5,8.1c0.3-0.1,0.7-0.1,1-0.1v7.5H12C12.1,12.2,13.1,9.4,14.5,8.1
	L14.5,8.1z M16.5,15.5V8c0.4,0,0.7,0.1,1,0.1c1.4,1.3,2.4,4.1,2.5,7.4H16.5z M12.8,8.7c-1.2,2.1-1.8,4.4-1.8,6.8H8
	C8.2,12.5,10.1,9.9,12.8,8.7z M8,16.5h3c0,2.4,0.6,4.8,1.8,6.8C10,22.1,8.2,19.5,8,16.5z M19.1,23.3c1.2-2.1,1.8-4.4,1.9-6.8h3
	C23.8,19.5,21.9,22.1,19.1,23.3L19.1,23.3z"/>
</svg>
